<?xml version="1.0" encoding="UTF-8"?>
<svg width="112px" height="128px" viewBox="0 0 112 128" version="1.1" xmlns="http://www.w3.org/2000/svg" xmlns:xlink="http://www.w3.org/1999/xlink">
    <title>agenda</title>
    <g id="Page-1" stroke="none" stroke-width="1" fill="none" fill-rule="evenodd">
        <g id="agenda" class="color-fill" fill="#000000" fill-rule="nonzero">
            <path d="M37,72 L27,72 C25.35,72 24,70.65 24,69 L24,59 C24,57.35 25.35,56 27,56 L37,56 C38.65,56 40,57.35 40,59 L40,69 C40,70.65 38.65,72 37,72 Z M64,69 L64,59 C64,57.35 62.65,56 61,56 L51,56 C49.35,56 48,57.35 48,59 L48,69 C48,70.65 49.35,72 51,72 L61,72 C62.65,72 64,70.65 64,69 Z M88,69 L88,59 C88,57.35 86.65,56 85,56 L75,56 C73.35,56 72,57.35 72,59 L72,69 C72,70.65 73.35,72 75,72 L85,72 C86.65,72 88,70.65 88,69 Z M64,93 L64,83 C64,81.35 62.65,80 61,80 L51,80 C49.35,80 48,81.35 48,83 L48,93 C48,94.65 49.35,96 51,96 L61,96 C62.65,96 64,94.65 64,93 Z M40,93 L40,83 C40,81.35 38.65,80 37,80 L27,80 C25.35,80 24,81.35 24,83 L24,93 C24,94.65 25.35,96 27,96 L37,96 C38.65,96 40,94.65 40,93 Z M88,93 L88,83 C88,81.35 86.65,80 85,80 L75,80 C73.35,80 72,81.35 72,83 L72,93 C72,94.65 73.35,96 75,96 L85,96 C86.65,96 88,94.65 88,93 Z M112,28 L112,116 C112,122.625 106.625,128 100,128 L12,128 C5.375,128 0,122.625 0,116 L0,28 C0,21.375 5.375,16 12,16 L24,16 L24,3 C24,1.35 25.35,0 27,0 L37,0 C38.65,0 40,1.35 40,3 L40,16 L72,16 L72,3 C72,1.35 73.35,0 75,0 L85,0 C86.65,0 88,1.35 88,3 L88,16 L100,16 C106.625,16 112,21.375 112,28 Z M100,114.5 L100,40 L12,40 L12,114.5 C12,115.325 12.675,116 13.5,116 L98.5,116 C99.325,116 100,115.325 100,114.5 Z" id="Shape"></path>
        </g>
    </g>
</svg>
