<?xml version="1.0" encoding="UTF-8"?>
<svg width="104px" height="128px" viewBox="0 0 104 128" version="1.1" xmlns="http://www.w3.org/2000/svg" xmlns:xlink="http://www.w3.org/1999/xlink">
    <title>clock</title>
    <g id="Page-1" stroke="none" stroke-width="1" fill="none" fill-rule="evenodd">
        <g id="clock" class="color-fill" fill="#000000" fill-rule="nonzero">
            <path d="M94.475,46 L100.125,40.35 C101.3,39.175 101.3,37.275 100.125,36.1 L95.875,31.85 C94.7,30.675 92.8,30.675 91.625,31.85 L86.45,37.025 C78.675,30.15 68.85,25.55 58,24.325 L58,12 L65,12 C66.65,12 68,10.65 68,9 L68,3 C68,1.35 66.65,0 65,0 L39,0 C37.35,0 36,1.35 36,3 L36,9 C36,10.65 37.35,12 39,12 L46,12 L46,24.35 C20.1,27.325 0,49.3 0,76 C0,104.725 23.275,128 52,128 C80.725,128 104,104.725 104,76 C104,64.825 100.475,54.475 94.475,46 Z M52,116 C29.9,116 12,98.1 12,76 C12,53.9 29.9,36 52,36 C74.1,36 92,53.9 92,76 C92,98.1 74.1,116 52,116 Z M55,88 L49,88 C47.35,88 46,86.65 46,85 L46,51 C46,49.35 47.35,48 49,48 L55,48 C56.65,48 58,49.35 58,51 L58,85 C58,86.65 56.65,88 55,88 Z" id="Shape"></path>
        </g>
    </g>
</svg>
