<?xml version="1.0" encoding="UTF-8"?>
<svg width="109px" height="135px" viewBox="0 0 109 135" version="1.1" xmlns="http://www.w3.org/2000/svg" xmlns:xlink="http://www.w3.org/1999/xlink">
    <!-- Generator: Sketch 48.2 (47327) - http://www.bohemiancoding.com/sketch -->
    <title>Group 2</title>
    <desc>Created with Sketch.</desc>
    <defs></defs>
    <g id="Desktop-HD" stroke="none" stroke-width="1" fill="none" fill-rule="evenodd" transform="translate(-488.000000, -1265.000000)">
        <g id="Group-7" transform="translate(0.000000, 717.000000)">
            <g id="Group-2" transform="translate(488.000000, 548.000000)">
                <rect id="Rectangle-5" fill="#E9AA9B" x="0" y="0" width="24" height="4"></rect>
                <rect id="Rectangle-5-Copy-3" class="color-fill" fill="#FFFFFF" x="7" y="10" width="32" height="4"></rect>
                <rect id="Rectangle-5-Copy-13" class="color-fill" fill="#FFFFFF" x="32" y="36" width="32" height="4"></rect>
                <rect id="Rectangle-5-Copy-20" class="color-fill" fill="#FFFFFF" x="7" y="67" width="32" height="4"></rect>
                <rect id="Rectangle-5-Copy-37" class="color-fill" fill="#FFFFFF" x="7" y="121" width="32" height="4"></rect>
                <rect id="Rectangle-5-Copy-30" class="color-fill" fill="#FFFFFF" x="32" y="93" width="32" height="4"></rect>
                <rect id="Rectangle-5-Copy-6" class="color-fill" fill="#FFFFFF" x="11" y="18" width="39" height="4"></rect>
                <rect id="Rectangle-5-Copy-23" fill="#E9AA9B" x="11" y="75" width="40" height="4"></rect>
                <rect id="Rectangle-5-Copy-41" class="color-fill" fill="#FFFFFF" x="11" y="131" width="40" height="4"></rect>
                <rect id="Rectangle-5-Copy-14" class="color-fill" fill="#FFFFFF" x="0" y="46" width="50" height="4"></rect>
                <rect id="Rectangle-5-Copy-31" class="color-fill" fill="#FFFFFF" x="0" y="104" width="50" height="4"></rect>
                <rect id="Rectangle-5-Copy" class="color-fill" fill="#FFFFFF" x="28" y="0" width="20" height="4"></rect>
                <rect id="Rectangle-5-Copy-12" class="color-fill" fill="#FFFFFF" x="7" y="36" width="20" height="4"></rect>
                <rect id="Rectangle-5-Copy-17" class="color-fill" fill="#FFFFFF" x="0" y="58" width="22" height="4"></rect>
                <rect id="Rectangle-5-Copy-4" fill="#E9AA9B" x="43" y="10" width="20" height="4"></rect>
                <rect id="Rectangle-5-Copy-7" class="color-fill" fill="#FFFFFF" x="56" y="18" width="20" height="4"></rect>
                <rect id="Rectangle-5-Copy-15" fill="#E9AA9B" x="56" y="46" width="20" height="4"></rect>
                <rect id="Rectangle-5-Copy-24" class="color-fill" fill="#FFFFFF" x="57" y="75" width="20" height="4"></rect>
                <rect id="Rectangle-5-Copy-40" fill="#E9AA9B" x="57" y="131" width="20" height="4"></rect>
                <rect id="Rectangle-5-Copy-29" fill="#E9AA9B" x="7" y="93" width="20" height="4"></rect>
                <rect id="Rectangle-5-Copy-34" class="color-fill" fill="#FFFFFF" x="0" y="113" width="22" height="4"></rect>
                <rect id="Rectangle-5-Copy-32" class="color-fill" fill="#FFFFFF" x="56" y="104" width="20" height="4"></rect>
                <rect id="Rectangle-5-Copy-18" class="color-fill" fill="#FFFFFF" x="27" y="58" width="18" height="4"></rect>
                <rect id="Rectangle-5-Copy-35" fill="#E9AA9B" x="28" y="113" width="18" height="4"></rect>
                <rect id="Rectangle-5-Copy-28" class="color-fill" fill="#FFFFFF" x="0" y="85" width="18" height="4"></rect>
                <rect id="Rectangle-5-Copy-21" class="color-fill" fill="#FFFFFF" x="45" y="67" width="18" height="4"></rect>
                <rect id="Rectangle-5-Copy-38" class="color-fill" fill="#FFFFFF" x="44" y="121" width="18" height="4"></rect>
                <rect id="Rectangle-5-Copy-39" class="color-fill" fill="#FFFFFF" x="68" y="121" width="18" height="4"></rect>
                <rect id="Rectangle-5-Copy-22" class="color-fill" fill="#FFFFFF" x="69" y="67" width="18" height="4"></rect>
                <rect id="Rectangle-5-Copy-10" class="color-fill" fill="#FFFFFF" x="0" y="28" width="18" height="4"></rect>
                <rect id="Rectangle-5-Copy-5" class="color-fill" fill="#FFFFFF" x="67" y="10" width="20" height="4"></rect>
                <rect id="Rectangle-5-Copy-2" class="color-fill" fill="#FFFFFF" x="52" y="0" width="10" height="4"></rect>
                <rect id="Rectangle-5-Copy-8" class="color-fill" fill="#FFFFFF" x="81" y="18" width="10" height="4"></rect>
                <rect id="Rectangle-5-Copy-16" class="color-fill" fill="#FFFFFF" x="81" y="46" width="10" height="4"></rect>
                <rect id="Rectangle-5-Copy-25" class="color-fill" fill="#FFFFFF" x="82" y="75" width="10" height="4"></rect>
                <rect id="Rectangle-5-Copy-26" class="color-fill" fill="#FFFFFF" x="97" y="75" width="10" height="4"></rect>
                <rect id="Rectangle-5-Copy-19" fill="#E9AA9B" x="50" y="58" width="10" height="4"></rect>
                <rect id="Rectangle-5-Copy-27" class="color-fill" fill="#FFFFFF" x="23" y="85" width="10" height="4"></rect>
                <rect id="Rectangle-5-Copy-33" fill="#E9AA9B" x="81" y="104" width="10" height="4"></rect>
                <rect id="Rectangle-5-Copy-36" class="color-fill" fill="#FFFFFF" x="51" y="113" width="10" height="4"></rect>
                <rect id="Rectangle-5-Copy-42" class="color-fill" fill="#FFFFFF" x="83" y="131" width="10" height="4"></rect>
                <rect id="Rectangle-5-Copy-43" class="color-fill" fill="#FFFFFF" x="99" y="131" width="10" height="4"></rect>
                <rect id="Rectangle-5-Copy-11" fill="#E9AA9B" x="23" y="28" width="10" height="4"></rect>
                <rect id="Rectangle-5-Copy-9" class="color-fill" fill="#FFFFFF" x="96" y="18" width="10" height="4"></rect>
            </g>
        </g>
    </g>
</svg>
