<?xml version="1.0" encoding="UTF-8"?>
<svg width="248px" height="89px" viewBox="0 0 248 89" version="1.1" xmlns="http://www.w3.org/2000/svg" xmlns:xlink="http://www.w3.org/1999/xlink">
    <!-- Generator: Sketch 48.2 (47327) - http://www.bohemiancoding.com/sketch -->
    <title>Page 1</title>
    <desc>Created with Sketch.</desc>
    <defs>
        <polygon id="path-1" points="5.91470267e-05 0.0001 247.0918 0.0001 247.0918 88.5049 5.91470267e-05 88.5049"></polygon>
    </defs>
    <g id="Desktop-HD" stroke="none" stroke-width="1" fill="none" fill-rule="evenodd" transform="translate(-596.000000, -50.000000)">
        <g id="Group-8">
            <g id="Page-1" transform="translate(596.000000, 50.000000)">
                <mask id="mask-2" fill="white">
                    <use xlink:href="#path-1"></use>
                </mask>
                <g id="Clip-2"></g>
                <path d="M52.8517409,9.04 C49.4977409,5.335 45.0037409,3.48 39.3637409,3.48 C37.4607409,3.48 34.9477409,3.528 31.8227409,3.626 C28.6957409,3.723 26.5697409,3.769 25.4417409,3.769 C19.5757409,3.769 15.3207409,3.675 12.6787409,3.48 C12.4197409,3.769 12.1947409,4.359 12.0017409,5.245 C11.8077409,6.133 11.7767409,6.736 11.9057409,7.058 C15.4517409,7.348 17.2877409,7.864 17.4157409,8.604 C17.4807409,8.863 17.5207409,9.145 17.5377409,9.451 C17.5527409,9.758 17.5437409,10.128 17.5137409,10.563 C17.4807409,10.997 17.4487409,11.361 17.4157409,11.651 C17.3827409,11.941 17.3197409,12.393 17.2217409,13.005 C17.1267409,13.617 17.0457409,14.076 16.9807409,14.383 C16.9157409,14.688 16.8117409,15.237 16.6667409,16.025 C16.5217409,16.815 16.4167409,17.372 16.3527409,17.693 L9.39174085,53.282 C8.52174085,58.022 7.71574085,61.054 6.97574085,62.377 C6.52274085,63.247 4.49274085,63.828 0.883740853,64.117 C0.593740853,64.441 0.350740853,65.045 0.158740853,65.933 C-0.035259147,66.822 -0.051259147,67.407 0.109740853,67.697 C4.29874085,67.247 8.58474085,67.022 12.9687409,67.022 C17.5437409,67.022 21.7977409,67.247 25.7317409,67.697 C25.9897409,67.407 26.1977409,66.822 26.3597409,65.933 C26.5207409,65.045 26.5357409,64.441 26.4087409,64.117 C22.9277409,63.828 21.1217409,63.247 20.9947409,62.377 C20.9287409,62.117 20.8887409,61.837 20.8727409,61.528 C20.8567409,61.225 20.8657409,60.853 20.8967409,60.416 C20.9287409,59.982 20.9597409,59.619 20.9947409,59.329 C21.0267409,59.039 21.0897409,58.586 21.1867409,57.974 C21.2847409,57.36 21.3627409,56.902 21.4287409,56.596 C21.4937409,56.289 21.5977409,55.738 21.7437409,54.949 C21.8877409,54.16 21.9927409,53.602 22.0567409,53.282 L29.5987409,14.405 C29.6637409,14.085 29.7677409,13.568 29.9127409,12.86 C30.0577409,12.15 30.1627409,11.659 30.2277409,11.385 C30.2907409,11.111 30.3717409,10.756 30.4687409,10.321 C30.5657409,9.887 30.6697409,9.531 30.7837409,9.258 C30.8957409,8.984 31.0167409,8.733 31.1457409,8.509 C31.6287409,7.735 33.2067409,7.348 35.8827409,7.348 C38.7837409,7.348 40.8637409,8.96 42.1207409,12.183 C43.3767409,15.407 43.5837409,19.24 42.7477409,23.688 C42.1347409,26.814 40.6207409,29.595 38.2037409,32.027 C35.7857409,34.461 33.4327409,35.677 31.1457409,35.677 C29.9867409,35.677 29.0187409,35.549 28.2457409,35.291 C28.1477409,35.291 28.0437409,35.356 27.9307409,35.483 C27.8177409,35.612 27.7627409,35.773 27.7627409,35.967 C27.7627409,36.226 27.8747409,36.628 28.0987409,37.176 C28.3257409,37.724 28.5357409,38.062 28.7277409,38.191 C30.0807409,39.158 31.5957409,39.641 33.2717409,39.641 C35.6247409,39.641 38.0087409,39.269 40.4277409,38.53 C42.8437409,37.789 45.1567409,36.733 47.3647409,35.362 C49.5717409,33.993 51.4897409,32.173 53.1177409,29.899 C54.7447409,27.628 55.8317409,25.106 56.3797409,22.333 C57.3787409,17.179 56.2037409,12.747 52.8517409,9.04 Z M75.7867409,28.185 C76.1887409,28.475 76.5037409,28.917 76.7287409,29.514 C76.9557409,30.11 77.1407409,30.674 77.2847409,31.205 C77.4307409,31.736 77.5267409,32.437 77.5747409,33.308 C77.6227409,34.178 77.6557409,34.84 77.6717409,35.291 C77.6867409,35.741 77.6957409,36.354 77.6957409,37.127 C77.6957409,40.641 77.2367409,44.427 76.3187409,48.489 C75.3997409,52.555 73.9977409,56.159 72.1117409,59.305 C70.2267409,62.447 68.1557409,64.02 65.8997409,64.02 C63.7077409,64.02 62.6147409,61.087 62.6147409,55.215 C62.6147409,52.474 62.8947409,49.539 63.4587409,46.41 C64.0227409,43.283 64.7957409,40.318 65.7797409,37.514 C66.7627409,34.711 68.0197409,32.381 69.5497409,30.528 C71.0807409,28.676 72.7007409,27.748 74.4097409,27.748 C74.9237409,27.748 75.3827409,27.894 75.7867409,28.185 Z M63.9657409,28.353 C60.0667409,31.334 56.8527409,35.152 54.3227409,39.811 C51.7917409,44.467 50.5267409,49.055 50.5267409,53.572 C50.5267409,58.087 51.7997409,61.604 54.3457409,64.117 C56.8917409,66.634 60.2277409,67.893 64.3537409,67.893 C68.1227409,67.893 71.9987409,66.434 75.9797409,63.514 C79.9587409,60.595 83.2557409,56.837 85.8667409,52.24 C88.4767409,47.644 89.7827409,43.09 89.7827409,38.577 C89.7827409,35.807 89.4187409,33.437 88.6937409,31.472 C87.9687409,29.507 86.9367409,27.982 85.5997409,26.902 C84.2627409,25.823 82.7727409,25.05 81.1287409,24.582 C79.4847409,24.114 77.5997409,23.882 75.4717409,23.882 C71.7017409,23.882 67.8657409,25.372 63.9657409,28.353 Z M118.354741,61.217 C118.354741,63.538 118.933741,65.265 120.094741,66.393 C121.253741,67.52 122.705741,68.085 124.445741,68.085 C126.056741,68.085 128.013741,67.317 130.315741,65.788 C132.618741,64.256 134.626741,62.603 136.333741,60.828 C138.042741,59.056 139.202741,57.602 139.815741,56.474 C139.815741,56.086 139.661741,55.555 139.354741,54.876 C139.048741,54.201 138.751741,53.862 138.462741,53.862 C138.171741,54.442 137.181741,55.57 135.487741,57.246 C133.798741,58.925 132.499741,59.763 131.597741,59.763 C131.145741,59.763 130.806741,59.554 130.581741,59.134 C130.356741,58.717 130.243741,58.25 130.243741,57.732 C130.243741,56.894 130.372741,55.828 130.630741,54.537 L136.239741,24.655 C134.690741,24.268 132.788741,24.075 130.532741,24.075 C128.215741,24.075 126.410741,24.268 125.121741,24.655 L123.768741,31.326 C123.187741,34.162 122.293741,37.184 121.085741,40.39 C119.875741,43.597 118.611741,46.427 117.290741,48.878 C115.968741,51.329 114.679741,53.369 113.422741,54.998 C112.165741,56.628 111.199741,57.441 110.522741,57.441 C110.039741,57.441 109.659741,57.24 109.385741,56.837 C109.111741,56.433 108.975741,55.958 108.975741,55.411 C108.975741,55.149 109.362741,52.698 110.135741,48.054 L112.359741,36.547 C112.940741,33.646 113.230741,31.713 113.230741,30.746 C113.230741,28.554 112.640741,26.863 111.465741,25.67 C110.288741,24.479 108.717741,23.882 106.751741,23.882 C104.431741,23.882 101.619741,25.316 98.3167409,28.185 C95.0117409,31.052 92.8287409,33.485 91.7657409,35.483 C91.7657409,35.871 91.9187409,36.401 92.2247409,37.079 C92.5307409,37.755 92.8287409,38.094 93.1197409,38.094 C93.4097409,37.514 94.3997409,36.387 96.0927409,34.711 C97.7847409,33.035 99.0807409,32.197 99.9837409,32.197 C100.434741,32.197 100.789741,32.414 101.046741,32.849 C101.303741,33.284 101.434741,33.744 101.434741,34.227 C101.434741,35.066 101.272741,36.128 100.950741,37.416 C100.853741,38.062 100.207741,41.446 99.0167409,47.571 C97.7917409,53.957 97.1807409,58.022 97.1807409,59.763 C97.1807409,62.83 97.5977409,64.982 98.4367409,66.222 C99.2747409,67.464 100.885741,68.085 103.271741,68.085 C105.366741,68.085 108.249741,66.255 111.924741,62.594 C115.597741,58.934 118.354741,55.149 120.191741,51.248 C119.771741,52.731 119.384741,54.442 119.030741,56.375 C118.579741,58.86 118.354741,60.474 118.354741,61.217 Z M144.126741,55.411 C143.544741,57.732 143.255741,59.668 143.255741,61.217 C143.255741,63.538 143.835741,65.265 144.995741,66.393 C146.155741,67.52 147.606741,68.085 149.345741,68.085 C150.958741,68.085 152.915741,67.317 155.220741,65.788 C157.522741,64.256 159.530741,62.603 161.237741,60.828 C162.946741,59.056 164.106741,57.602 164.718741,56.474 C164.718741,56.086 164.567741,55.555 164.261741,54.876 C163.952741,54.201 163.655741,53.862 163.364741,53.862 C163.075741,54.442 162.085741,55.57 160.392741,57.246 C158.700741,58.925 157.403741,59.763 156.501741,59.763 C156.048741,59.763 155.710741,59.554 155.485741,59.134 C155.259741,58.717 155.145741,58.25 155.145741,57.732 C155.145741,57.151 155.276741,56.086 155.534741,54.537 L164.429741,9.089 C165.265741,5.061 165.684741,2.644 165.684741,1.838 C165.684741,0.84 165.493741,0.226 165.106741,0 C163.913741,0.418 161.335741,1.032 157.370741,1.838 C153.407741,2.644 150.183741,3.159 147.702741,3.385 C147.509741,3.577 147.362741,4.045 147.267741,4.786 C147.169741,5.528 147.186741,5.996 147.315741,6.188 C151.247741,6.188 153.212741,6.802 153.212741,8.025 C153.212741,8.348 153.165741,8.79 153.067741,9.355 C152.972741,9.919 152.843741,10.595 152.683741,11.385 C152.518741,12.176 152.407741,12.763 152.343741,13.149 L144.126741,55.411 Z M198.917741,38.384 C198.917741,40.447 198.563741,42.904 197.854741,45.757 C197.143741,48.612 196.226741,51.362 195.099741,54.006 C193.972741,56.652 192.585741,58.9 190.940741,60.755 C189.298741,62.61 187.669741,63.538 186.058741,63.538 C184.737741,63.538 183.866741,62.699 183.448741,61.021 C183.028741,59.345 183.159741,56.637 183.835741,52.894 L187.220741,36.063 C189.927741,33.356 192.567741,32.003 195.147741,32.003 C197.661741,32.003 198.917741,34.13 198.917741,38.384 Z M194.446741,26.25 C191.724741,27.831 189.571741,29.489 187.991741,31.229 C188.669741,28.136 189.118741,25.945 189.347741,24.655 C188.927741,24.431 188.065741,24.243 186.761741,24.099 C185.454741,23.953 184.446741,23.882 183.737741,23.882 C180.999741,23.882 179.032741,24.043 177.839741,24.365 L174.940741,39.545 L170.222741,44.233 C169.255741,45.039 168.770741,45.943 168.770741,46.941 C168.770741,48.103 168.997741,48.973 169.448741,49.553 L173.876741,44.862 L166.626741,79.696 C166.173741,81.698 165.659741,83.084 165.079741,83.859 C164.239741,84.89 162.952741,85.407 161.210741,85.407 C160.952741,85.567 160.800741,86.107 160.751741,87.028 C160.702741,87.948 160.792741,88.439 161.017741,88.505 C165.821741,87.924 172.169741,87.634 180.063741,87.634 C180.386741,87.634 180.917741,87.65 181.659741,87.68 C182.399741,87.713 182.995741,87.728 183.448741,87.728 C183.673741,87.634 183.845741,87.116 183.954741,86.181 C184.069741,85.245 184.028741,84.762 183.835741,84.729 C181.642741,84.729 180.128741,84.635 179.292741,84.439 C178.872741,84.31 178.542741,83.998 178.300741,83.495 C178.058741,82.994 177.936741,82.569 177.936741,82.213 C177.936741,81.277 178.034741,80.375 178.227741,79.504 L180.741741,67.312 C181.450741,67.635 182.319741,67.796 183.352741,67.796 C186.253741,67.796 189.362741,66.87 192.683741,65.013 C196.001741,63.157 199.038741,60.763 201.794741,57.827 C204.550741,54.895 206.837741,51.427 208.659741,47.428 C210.477741,43.428 211.390741,39.479 211.390741,35.581 C211.390741,32.1 210.561741,29.28 208.899741,27.119 C207.241741,24.961 204.911741,23.882 201.915741,23.882 C199.659741,23.882 197.171741,24.672 194.446741,26.25 Z M227.874741,26.565 C224.927741,28.353 222.290741,30.642 219.972741,33.429 C217.649741,36.218 215.739741,39.431 214.241741,43.072 C212.741741,46.717 211.995741,50.28 211.995741,53.765 C211.995741,58.215 212.983741,61.683 214.966741,64.166 C216.950741,66.65 219.665741,67.893 223.112741,67.893 C224.530741,67.893 226.255741,67.398 228.286741,66.417 C230.315741,65.433 232.200741,64.288 233.940741,62.981 C235.683741,61.675 237.220741,60.408 238.558741,59.183 C239.895741,57.957 240.741741,57.054 241.097741,56.474 C241.097741,56.056 240.950741,55.468 240.659741,54.708 C240.370741,53.948 240.030741,53.572 239.645741,53.572 L239.354741,53.862 C239.161741,54.055 238.970741,54.267 238.774741,54.491 C238.581741,54.717 238.315741,54.998 237.977741,55.338 C237.640741,55.677 237.276741,56.007 236.892741,56.327 C236.503741,56.652 236.091741,56.988 235.657741,57.344 C235.222741,57.699 234.761741,58.022 234.278741,58.311 C233.796741,58.602 233.311741,58.868 232.829741,59.112 C232.345741,59.353 231.847741,59.537 231.329741,59.668 C230.813741,59.795 230.331741,59.861 229.880741,59.861 C228.720741,59.861 227.735741,59.603 226.931741,59.085 C226.126741,58.569 225.520741,57.876 225.118741,57.005 C224.716741,56.135 224.425741,55.256 224.249741,54.369 C224.069741,53.482 223.981741,52.539 223.981741,51.538 C223.981741,50.312 224.046741,49.504 224.177741,49.119 C225.786741,49.119 227.833741,48.724 230.315741,47.935 C232.798741,47.144 235.309741,46.071 237.856741,44.716 C240.403741,43.363 242.577741,41.616 244.382741,39.472 C246.186741,37.328 247.091741,35.096 247.091741,32.776 C247.091741,31.165 246.767741,29.756 246.124741,28.546 C245.477741,27.338 244.616741,26.412 243.538741,25.768 C242.456741,25.123 241.321741,24.647 240.128741,24.341 C238.936741,24.035 237.679741,23.882 236.356741,23.882 C233.651741,23.882 230.821741,24.775 227.874741,26.565 Z M225.384741,40.512 C225.866741,38.577 226.472741,36.611 227.196741,34.613 C227.921741,32.615 228.809741,30.924 229.854741,29.537 C230.903741,28.151 231.976741,27.458 233.071741,27.458 C234.745741,27.458 235.585741,28.715 235.585741,31.229 C235.585741,32.937 235.181741,34.679 234.376741,36.45 C233.571741,38.223 232.587741,39.755 231.427741,41.043 C230.267741,42.331 229.050741,43.388 227.776741,44.209 C226.503741,45.03 225.401741,45.442 224.466741,45.442 C224.593741,44.088 224.901741,42.443 225.384741,40.512 Z" id="Fill-1" fill="#FFFFFF" mask="url(#mask-2)"></path>
            </g>
        </g>
    </g>
</svg>