<?xml version="1.0" encoding="UTF-8"?>
<svg width="151px" height="128px" viewBox="0 0 151 128" version="1.1" xmlns="http://www.w3.org/2000/svg" xmlns:xlink="http://www.w3.org/1999/xlink">
    <!-- Generator: Sketch 48.2 (47327) - http://www.bohemiancoding.com/sketch -->
    <title>noun_1230503_cc</title>
    <desc>Created with Sketch.</desc>
    <defs></defs>
    <g id="Desktop-HD" stroke="none" stroke-width="1" fill="none" fill-rule="evenodd" transform="translate(-97.000000, -1120.000000)">
        <g id="Group-7" transform="translate(0.000000, 717.000000)" fill="#EE6A39" fill-rule="nonzero">
            <g id="noun_1230503_cc" transform="translate(97.000000, 403.000000)">
                <g id="Group">
                    <rect id="Rectangle-path" x="0" y="45.1126077" width="7.04666667" height="13.9195035"></rect>
                    <rect id="Rectangle-path" x="143.953333" y="45.1126077" width="7.04666667" height="13.9195035"></rect>
                    <polygon id="Shape" points="76.6744444 6.70819446 78.6877778 6.70819446 78.6877778 0 71.9766667 0 71.9766667 6.70819446 73.99 6.70819446"></polygon>
                    <path d="M127.343333,16.0996667 L76.6744444,16.0996667 L76.6744444,6.70819446 L73.99,6.70819446 L73.99,16.0996667 L23.9922222,16.0996667 C17.7844444,16.0996667 12.7511111,21.1308126 12.7511111,27.5035973 L12.7511111,100.958327 L12.7511111,127.120285 C12.7511111,127.455695 13.0866667,127.6234 13.4222222,127.455695 L47.1455556,101.126031 C47.1455556,101.126031 47.3133333,100.958327 47.4811111,100.958327 L127.007778,100.958327 C133.215556,100.958327 138.248889,95.9271808 138.248889,89.554396 L138.248889,27.0004827 C138.248889,20.9631077 133.383333,16.0996667 127.343333,16.0996667 Z M58.7222222,69.0944029 L48.6555556,69.0944029 L48.6555556,45.1126077 L58.7222222,45.1126077 L58.7222222,69.0944029 Z M102.512222,69.0944029 L92.4455556,69.0944029 L92.4455556,45.1126077 L102.512222,45.1126077 L102.512222,69.0944029 Z" id="Shape"></path>
                </g>
            </g>
        </g>
    </g>
</svg>