<?xml version="1.0" encoding="UTF-8"?>
<svg width="128px" height="128px" viewBox="0 0 128 128" version="1.1" xmlns="http://www.w3.org/2000/svg" xmlns:xlink="http://www.w3.org/1999/xlink">
    <title>bug</title>
    <g id="Page-1" stroke="none" stroke-width="1" fill="none" fill-rule="evenodd">
        <g id="bug" class="color-fill" fill="#000000" fill-rule="nonzero">
            <path d="M127.997,72.225 C127.8775,76.5825 124.19275,80 119.83375,80 L106,80 L106,84 C106,89.466 104.7795,94.646 102.6,99.28625 L117.657,114.34325 C120.781,117.4675 120.781,122.53275 117.657,125.657 C114.5325,128.78125 109.46725,128.781 106.343,125.657 L92.659,111.973 C86.4715,116.99125 78.58775,120 70,120 L70,59 C70,57.34325 68.65675,56 67,56 L61,56 C59.34325,56 58,57.34325 58,59 L58,120 C49.41225,120 41.5285,116.99125 35.341,111.973 L21.657,125.657 C18.5325,128.78125 13.46725,128.781 10.343,125.657 C7.219,122.53275 7.219,117.4675 10.343,114.34325 L25.4,99.28625 C23.2205,94.646 22,89.466 22,84 L22,80 L8.1665,80 C3.8075,80 0.12275,76.5825 0.00325,72.225 C-0.121,67.704 3.507,64 8,64 L22,64 L22,49.31375 L10.343,37.65675 C7.219,34.5325 7.219,29.46725 10.343,26.343 C13.4675,23.21875 18.5325,23.21875 21.657,26.343 L35.31375,40 L92.686,40 L106.34275,26.34325 C109.46725,23.219 114.53225,23.219 117.65675,26.34325 C120.78075,29.4675 120.78075,34.53275 117.65675,37.657 L106,49.31375 L106,64 L120,64 C124.493,64 128.121,67.704 127.997,72.225 Z M64.25,0 C48.786,0 36.25,12.536 36.25,28 L92.25,28 C92.25,12.536 79.714,0 64.25,0 Z" id="Shape"></path>
        </g>
    </g>
</svg>
