<?xml version="1.0" encoding="UTF-8"?>
<svg width="115px" height="139px" viewBox="0 0 115 139" version="1.1" xmlns="http://www.w3.org/2000/svg" xmlns:xlink="http://www.w3.org/1999/xlink">
    <!-- Generator: Sketch 48.2 (47327) - http://www.bohemiancoding.com/sketch -->
    <title>Page 1</title>
    <desc>Created with Sketch.</desc>
    <defs>
        <polygon id="path-1" points="0 0.021508 101.775159 0.021508 101.775159 75.6212381 0 75.6212381"></polygon>
    </defs>
    <g id="Desktop-HD" stroke="none" stroke-width="1" fill="none" fill-rule="evenodd" transform="translate(-1208.000000, -760.000000)">
        <g id="Group-7" transform="translate(0.000000, 717.000000)">
            <g id="Page-1" transform="translate(1208.000000, 43.000000)">
                <g id="Group-3" transform="translate(0.000000, 6.000000)">
                    <mask id="mask-2" fill="white">
                        <use xlink:href="#path-1"></use>
                    </mask>
                    <g id="Clip-2"></g>
                    <path d="M2.48506,13.298708 C0.18326,20.035348 -0.599495556,27.329828 0.474148889,34.759208 C4.27761556,61.080668 29.9317489,79.118128 57.7743489,75.047948 C85.6169489,70.977008 105.104616,46.339328 101.300771,20.017868 C100.227504,12.588488 97.4123044,5.819928 93.2998156,0.021508 L2.48506,13.298708 Z" id="Fill-1" class="color-fill" fill="#EE6A39" mask="url(#mask-2)"></path>
                </g>
                <path d="M9.71924324,1.5175644 C6.26464865,8.83639813 4.51351351,16.684103 4.51351351,24.8501171 C4.51351351,54.9745293 28.956,79.4824356 59,79.4824356 C89.044,79.4824356 113.486486,54.9745293 113.486486,24.8501171 C113.486486,16.684103 111.735351,8.83639813 108.280757,1.5175644 L9.71924324,1.5175644 Z M59,81 C28.1212973,81 3,55.8110867 3,24.8501171 C3,16.2937096 4.87108108,8.07685714 8.56102703,0.428332553 L8.76762162,0 L109.232,0 L109.438595,0.428332553 C113.128541,8.07685714 115,16.2937096 115,24.8501171 C115,55.8110867 89.8783243,81 59,81 Z" id="Fill-4" fill="#BE471A"></path>
                <path d="M63.9629284,135.574194 L63.9629284,80 L59.0370716,80 L59.0370716,135.574194 C32.1343158,135.574194 34.0288761,139 34.0288761,139 L61.310544,139 L61.689456,139 L88.9711239,139 C88.9711239,139 90.8656842,135.574194 63.9629284,135.574194" id="Fill-6" fill="#BE471A"></path>
            </g>
        </g>
    </g>
</svg>