<?xml version="1.0" encoding="UTF-8"?>
<svg width="124px" height="124px" viewBox="0 0 124 124" version="1.1" xmlns="http://www.w3.org/2000/svg" xmlns:xlink="http://www.w3.org/1999/xlink">
    <!-- Generator: Sketch 48.2 (47327) - http://www.bohemiancoding.com/sketch -->
    <title>Group</title>
    <desc>Created with Sketch.</desc>
    <defs></defs>
    <g id="Desktop-HD" stroke="none" stroke-width="1" fill="none" fill-rule="evenodd" transform="translate(-839.000000, -1121.000000)">
        <g id="Group-7" transform="translate(0.000000, 717.000000)" fill="#EE6A39" fill-rule="nonzero">
            <g id="Group" transform="translate(839.000000, 404.000000)">
                <polygon id="Shape" points="22 64.277937 76.8341709 93 86 88.8280802 34.2211055 37"></polygon>
                <polygon id="Shape" points="14 82.6285714 54.96875 104 71 96.7142857 19.6676136 70"></polygon>
                <path d="M0.288233981,114.119585 C-1.30175209,119.995473 3.94520195,125.218485 9.66915181,123.749513 L27,115.914995 L4.89919359,104 L0.288233981,114.119585 Z" id="Shape"></path>
                <polygon id="Shape" points="6 98.3658537 32.8136882 112 49 105.02439 11.7224335 86"></polygon>
                <path d="M59.5769231,49.4230769 C59.5769231,49.4230769 59.5769231,49.4230769 59.5769231,49.4230769 C60.3461538,50.1923077 61.7307692,50.1923077 62.5,49.4230769 L67.4230769,44.3461538 C68.1923077,43.5769231 68.1923077,42.3461538 67.4230769,41.5769231 C66.6538462,40.8076923 65.4230769,40.8076923 64.6538462,41.5769231 L59.5769231,46.6538462 C58.8076923,47.4230769 58.8076923,48.6538462 59.5769231,49.4230769 Z" id="Shape"></path>
                <path d="M70.6193878,37.3857975 C69.7935374,38.2166487 69.7935374,39.5460105 70.6193878,40.3768616 C70.6193878,40.3768616 70.6193878,40.3768616 70.6193878,40.3768616 C71.4452383,41.2077128 72.766599,41.2077128 73.5924495,40.3768616 L76.8958513,37.053457 C89.118438,24.4245196 79.2082326,11.9617524 79.2082326,11.7955822 C78.3823821,10.7985608 77.0610214,10.7985608 76.2351709,11.4632417 C75.2441504,12.2940928 75.2441504,13.6234547 75.9048308,14.4543058 C76.2351709,14.7866463 83.3374849,24.0921791 73.9227897,33.8962227 L70.6193878,37.3857975 Z" id="Shape"></path>
                <path d="M79.2322835,54.5487805 L72.6496063,59.8170732 C71.7834646,60.5487805 71.7834646,61.7195122 72.6496063,62.4512195 C72.6496063,62.4512195 72.6496063,62.4512195 72.6496063,62.4512195 C73.515748,63.1829268 74.9015748,63.1829268 75.7677165,62.4512195 L82.3503937,57.1829268 C83.2165354,56.4512195 83.2165354,55.2804878 82.3503937,54.5487805 C82.3503937,54.5487805 82.3503937,54.5487805 82.3503937,54.5487805 C81.6574803,53.8170732 80.2716535,53.8170732 79.2322835,54.5487805 Z" id="Shape"></path>
                <path d="M84.6020968,52.4289821 C85.3304124,53.1903393 86.4957175,53.1903393 87.2240331,52.4289821 L89.9916326,49.6880959 C90.428622,49.2312816 90.8656114,48.9267387 91.3026008,48.4699243 C92.1765796,47.7085671 92.1765796,46.4903955 91.5939271,45.7290382 C90.8656114,44.8154095 89.7003064,44.8154095 88.9719907,45.4244953 C88.3893382,45.8813097 87.9523488,46.338124 87.3696963,46.7949384 C87.3696963,46.7949384 87.3696963,46.7949384 87.3696963,46.7949384 L84.6020968,49.5358245 C83.8737811,50.4494532 83.728118,51.6676248 84.6020968,52.4289821 C84.4564336,52.4289821 84.4564336,52.4289821 84.6020968,52.4289821 Z" id="Shape"></path>
                <path d="M112.468149,47.1922041 C113.298805,46.2946532 113.132674,45.0979186 112.135887,44.4995513 C111.803625,44.3499594 105.822904,40.0117965 97.8486103,41.2085311 C96.6856924,41.3581229 95.8550368,42.4052657 96.0211679,43.4524085 C96.0211679,43.901184 96.3534302,44.2003676 96.6856924,44.4995513 C97.1840858,44.9483267 97.8486103,45.0979186 98.5131348,45.0979186 C104.659986,44.2003676 109.311658,47.4913878 109.311658,47.6409796 C110.308445,48.2393469 111.803625,48.0897551 112.468149,47.1922041 Z" id="Shape"></path>
                <path d="M48.1874877,37.8178565 C49.2265394,38.2895746 50.2655911,37.8178565 50.710899,36.7171809 L53.8280542,28.8552127 C54.2733621,27.7545372 53.8280542,26.6538616 52.7890025,26.1821435 C51.7499508,25.7104254 50.710899,26.1821435 50.2655911,27.2828191 L47.148436,35.1447873 C46.851564,35.9309841 47,36.8744203 47.5937438,37.3461384 C47.7421798,37.5033778 47.8906158,37.6606171 48.1874877,37.8178565 Z" id="Shape"></path>
                <path d="M48.1998627,3.97614924 C48.526356,4.13634012 56.6886876,8.94206651 54.4032348,18.7137102 C54.4032348,18.7137102 54.4032348,18.7137102 54.4032348,18.7137102 C54.4032348,18.8739011 54.2399881,19.1942828 54.2399881,19.3544737 C54.0767415,20.1554281 54.2399881,20.7961916 54.729728,21.4369551 C55.0562213,21.7573369 55.3827146,21.9175278 55.7092078,21.9175278 C56.8519343,22.2379095 57.9946607,21.597146 58.321154,20.4758099 C58.321154,20.1554281 58.4844006,19.9952372 58.4844006,19.6748555 C58.4844006,19.6748555 58.4844006,19.6748555 58.4844006,19.6748555 C60.9331001,9.26244827 54.0767415,2.53443132 50.1588223,0.291759 C49.1793425,-0.349004519 47.8733695,0.13156812 47.220383,1.0927134 C46.7306431,2.05385868 47.0571363,3.33538572 48.1998627,3.97614924 Z" id="Shape"></path>
                <path d="M102.807471,67.4209075 C102.308857,66.2017503 101.145423,65.6792543 99.9819888,66.2017503 L85.3559628,72.645867 C84.192529,73.168363 83.6939144,74.3875202 84.192529,75.6066775 C84.3587338,75.9550081 84.5249386,76.1291734 84.6911435,76.3033387 C85.3559628,77 86.186987,77.1741653 87.0180112,76.8258347 L101.644037,70.5558832 C102.807471,70.0333873 103.306086,68.6400647 102.807471,67.4209075 Z" id="Shape"></path>
                <path d="M123.665845,73.2252498 C123.501937,72.9059146 120.059865,66.9982139 112.683997,65.0822028 C111.536639,64.7628676 110.389282,65.401538 110.061466,66.5192111 C109.897557,67.317549 110.061466,67.9562194 110.55319,68.4352222 C110.881006,68.7545573 111.208823,68.9142249 111.536639,68.9142249 C117.109518,70.3512332 119.895957,74.9815933 119.895957,74.9815933 C120.551589,75.9395988 121.698947,76.258934 122.846304,75.7799312 C123.993661,75.6202636 124.321478,74.3429229 123.665845,73.2252498 Z" id="Shape"></path>
                <circle id="Oval" cx="70.5" cy="4.5" r="2.5"></circle>
                <circle id="Oval" cx="42.5" cy="23.5" r="2.5"></circle>
                <circle id="Oval" cx="119.5" cy="53.5" r="2.5"></circle>
                <circle id="Oval" cx="100.5" cy="80.5" r="2.5"></circle>
                <circle id="Oval" cx="92.5" cy="21.5" r="2.5"></circle>
            </g>
        </g>
    </g>
</svg>