<?xml version="1.0" encoding="UTF-8"?>
<svg width="111px" height="131px" viewBox="0 0 111 131" version="1.1" xmlns="http://www.w3.org/2000/svg" xmlns:xlink="http://www.w3.org/1999/xlink">
    <!-- Generator: Sketch 48.2 (47327) - http://www.bohemiancoding.com/sketch -->
    <title>Page 1</title>
    <desc>Created with Sketch.</desc>
    <defs>
        <polygon id="path-1" points="0.000346344301 0.873333333 110.913002 0.873333333 110.913002 130.999693 0.000346344301 130.999693"></polygon>
    </defs>
    <g id="Desktop-HD" stroke="none" stroke-width="1" fill="none" fill-rule="evenodd" transform="translate(-485.000000, -760.000000)">
        <g id="Group-7" transform="translate(0.000000, 717.000000)">
            <g id="Page-1" transform="translate(485.000000, 43.000000)">
                <g id="Group-3">
                    <mask id="mask-2" fill="white">
                        <use xlink:href="#path-1"></use>
                    </mask>
                    <g id="Clip-2"></g>
                    <path d="M45.8139905,119.825284 C44.8404834,120.447014 44.487613,121.642649 44.4440231,122.736395 C46.507277,122.68857 48.5165624,121.90049 50.1127819,120.598808 C49.6582018,120.039459 49.0853064,119.540411 48.3691871,119.361586 C47.4994654,119.082951 46.5799267,119.403173 45.8139905,119.825284 M19.0892492,116.568998 C18.6824104,117.352919 18.8007258,118.307348 19.1411419,119.091268 C19.2013374,119.257617 19.4109839,119.253459 19.5542078,119.284649 C20.9304022,119.430205 22.3418837,119.336633 23.6703369,118.926998 C23.6952454,118.29903 23.8322421,117.656506 23.6599583,117.036856 C23.4606904,116.227983 22.7528739,115.660316 22.0284518,115.323459 C20.9241751,114.9263 19.5957219,115.520998 19.0892492,116.568998 M87.9923783,114.915903 C86.8237546,115.28603 86.0910297,116.56276 86.3255847,117.764633 C87.645735,118.556871 89.1879861,118.918681 90.717783,118.981062 C90.8817639,118.65876 91.0561234,118.340617 91.1599088,117.993363 C91.3321925,117.321729 91.1702873,116.602268 90.8796882,115.986776 C90.3379284,115.003237 89.0489137,114.481316 87.9923783,114.915903 M15.3425961,100.697205 C13.7858151,102.115332 12.3037595,103.722681 11.5627318,105.735506 C12.278851,105.999586 13.0530901,106.274062 13.8231778,106.093157 C15.2761735,105.826998 16.3596931,104.385998 16.2932704,102.922125 C16.2849676,102.086221 15.9113401,101.296062 15.3425961,100.697205 M93.3850678,102.069586 C93.2833581,103.265221 93.8790863,104.533633 94.9376974,105.13457 C95.5126686,105.481824 96.2080308,105.589951 96.8743331,105.544205 C97.90596,105.286363 98.85871,104.604332 99.31329,103.624951 C98.7300161,102.662205 97.9723826,101.817983 97.1213423,101.083967 C96.6273238,100.460157 96.0523527,99.9153635 95.4234131,99.4267127 C94.3461206,99.8633794 93.4680961,100.882268 93.3850678,102.069586 M99.0392966,65.4582048 C98.2775117,65.9697286 97.5032726,66.5082841 96.9760428,67.2776492 C95.4711544,69.3383 95.3071735,72.2993159 96.6024153,74.5013635 C97.1960678,75.2852841 97.7938717,76.1024746 98.6137764,76.6639032 C99.2489431,77.113046 100.025258,77.3334587 100.585699,77.8948873 C102.740284,73.946173 104.380093,69.7125857 105.388888,65.3251254 C104.581437,65.0464905 103.794744,64.6555698 102.931249,64.6015063 C101.588266,64.4933794 100.199617,64.7678556 99.0392966,65.4582048 M94.1987454,25.9253159 C94.3710291,26.7529032 94.7384295,27.5742524 95.4068075,28.1169667 C96.3740874,29.0214905 97.8478401,29.2419032 99.0870379,28.8509825 C97.7897203,26.831919 96.3865417,24.8689984 94.8069278,23.0641095 C94.3025308,23.9187286 94.0057045,24.9313794 94.1987454,25.9253159 M19.6268576,19.319173 C20.4571408,20.6063 21.9371206,21.6605381 23.5312644,21.4172524 C24.7330994,21.3132841 25.8768145,20.6478873 26.520284,19.6186016 C27.2177219,18.6537762 27.3567944,17.3728873 27.0786495,16.237554 C26.8897601,15.4848238 26.4144229,14.8589349 26.0117356,14.2143317 C23.776198,15.7738556 21.5095248,17.3271413 19.6268576,19.319173 M53.1184071,5.25642698 C51.4931277,5.33752222 49.8553941,5.3271254 48.2508717,5.63903016 C43.9977459,6.42087143 39.8048156,7.54996667 35.7177465,8.96809365 C33.57354,9.67091905 31.6597372,10.8998238 29.677436,11.9499032 C30.4350694,13.0394905 31.1075989,14.2268079 31.348381,15.5492841 C31.5559518,16.722046 31.618223,17.9447127 31.3421539,19.1112365 C31.0058892,20.8745381 29.9950193,22.4569349 28.6956261,23.6671254 C27.9587497,24.3117286 27.0994066,24.8107762 26.2193064,25.2287286 C24.863869,25.6383635 23.427479,25.8982841 22.0139218,25.7132206 C20.7290586,25.5364746 19.5604349,24.9334587 18.4374769,24.3158873 C17.7524932,23.812681 17.2273391,23.1285698 16.6129295,22.5442683 C14.7759278,24.6631413 13.0344088,26.8735063 11.4797034,29.2107127 C10.5456348,30.6350778 9.85234831,32.196681 9.08641204,33.7166968 C7.91571269,36.0767762 7.02938535,38.5616175 6.2177835,41.0630937 C5.73414352,42.5436016 5.45184722,44.078173 5.13426389,45.6023476 C4.36832761,49.0769667 4.28322358,52.655554 4.33096487,56.1987921 C4.3641762,57.5982048 4.37040332,59.0059349 4.60288263,60.3887127 C5.19653513,64.4892206 6.07871106,68.5855698 7.74135321,72.3949667 C8.42010975,74.0002365 9.09679058,75.6055063 9.87725681,77.1608714 C10.5269534,78.3294746 11.2098614,79.4752048 11.9218292,80.6043 C12.7168254,81.9392524 13.7110896,83.139046 14.6347797,84.3845857 C16.2268478,86.5512841 18.1136664,88.4809349 20.0752105,90.3128556 C20.4903521,90.7308079 20.9739921,91.0718238 21.451405,91.414919 C22.4228363,92.1489349 22.4996375,93.7438079 21.621613,94.5817921 C20.5630019,95.6256333 19.4898608,96.6507603 18.4270983,97.6883635 C20.2246615,99.4641413 20.9905978,102.18603 20.4301566,104.64176 C19.9236838,106.972729 18.244436,109.018824 16.0317312,109.91503 C14.4272089,110.632411 12.5985101,110.588744 10.9296408,110.122967 C11.1185302,112.042221 11.7869082,113.930284 12.9555319,115.473173 C13.4018091,116.078268 13.9850831,116.56276 14.5019344,117.103395 C14.7240351,114.965808 15.9611571,112.946744 17.8043859,111.832205 C19.0498107,111.175125 20.4737465,110.728062 21.8956065,110.906887 C24.7621593,111.137697 27.3173559,113.410443 27.9089327,116.230062 C28.9073483,115.105125 29.6961174,113.782649 30.1257889,112.333332 C30.3022241,111.680411 30.3063755,110.992141 30.4641294,110.337141 C30.7111386,109.376475 31.6908728,108.684046 32.6768342,108.7693 C33.6544926,108.808808 34.5076087,109.605205 34.6798924,110.559633 C34.8957661,111.430887 34.4889273,112.285506 34.5221386,113.15884 C34.5449714,114.716284 34.9393559,116.26957 35.6720809,117.64611 C36.6414365,119.523776 38.2791702,121.006363 40.1763674,121.912967 C40.3631811,119.958363 41.2162971,118.022475 42.7440182,116.751983 C44.2260738,115.433665 46.2623434,114.7953 48.2321904,114.95957 C49.9446495,115.100967 51.5637018,115.905681 52.7862938,117.099237 C53.3924006,115.67903 53.7182868,114.136141 53.6435613,112.587014 C53.58129,111.852998 53.8926462,111.09611 54.4925259,110.659443 C55.4141403,109.91711 56.9065743,110.154157 57.556271,111.137697 C57.9589583,111.828046 58.2703145,112.626522 58.1665291,113.439554 C58.0066996,115.458617 58.4861882,117.529665 59.5510264,119.257617 C60.6220918,121.135284 62.4009736,122.563808 64.4040319,123.339411 C66.4091658,124.075506 68.655082,124.108776 70.6851245,123.455856 C72.6487443,122.802935 74.3819605,121.490856 75.5422813,119.779538 C76.9765956,117.702252 77.5577938,115.059379 77.1385008,112.574538 C77.0533968,112.042221 76.8748859,111.530697 76.8167661,110.998379 C76.7295863,110.158316 77.2069992,109.305776 77.9501027,108.923173 C78.8343543,108.430363 80.0424164,108.686125 80.6547503,109.49084 C81.175753,110.135443 81.1217846,111.019173 81.4435193,111.75111 C81.8607367,112.589094 82.1617143,113.479062 82.6432786,114.283776 C83.0293603,113.562237 83.5420602,112.921792 84.08382,112.314617 C84.6442612,111.661697 85.4786958,111.366427 86.2134965,110.96303 C86.9150858,110.57211 87.7308391,110.522205 88.513381,110.455665 C90.7655242,110.301792 92.992759,111.48911 94.2963036,113.304395 C95.1847067,114.645586 95.6538167,116.265411 95.5458799,117.878998 C97.0777525,117.034776 98.410357,115.818348 99.3195172,114.319125 C100.407188,112.574538 100.897055,110.50349 100.845163,108.455316 C99.8446713,109.060411 98.7611517,109.578173 97.6112094,109.813141 C95.8302519,110.031475 93.9351304,109.684221 92.4406206,108.661173 C91.8843309,108.31184 91.3280411,107.939633 90.9502623,107.39276 C90.3794425,106.581808 89.686156,105.804125 89.4619796,104.810189 C89.2751658,104.044983 89.0447623,103.279776 89.0177781,102.487538 C89.0779736,101.100602 89.3706484,99.684554 90.1407361,98.5076333 C90.5600291,97.6717286 91.2906784,97.0749508 91.9341479,96.4199508 C91.307284,95.9021889 90.7489186,95.2742206 89.9809066,94.9643952 C89.0073995,94.5110937 88.5735765,93.2530778 88.9721125,92.2695381 C89.217046,91.6124587 89.8335313,91.2215381 90.3254741,90.7640778 C93.4016735,88.002681 96.1229267,84.8524429 98.4269627,81.4194111 C97.0258597,80.8850143 95.7700564,80.0262365 94.663704,79.0239825 C94.0845814,78.269173 93.4597933,77.5434746 92.9055792,76.7657921 C91.0748047,73.6529825 90.9295052,69.6377286 92.4925133,66.387681 C93.1401343,65.0943159 94.0119316,63.9090778 95.0912998,62.9504905 C95.8302519,62.4867921 96.4280558,61.8172365 97.2521119,61.4928556 C98.0657895,60.9875698 98.9977824,60.760919 99.9027911,60.4739667 C101.988878,60.0456175 104.197431,60.2057286 106.181808,60.9917286 C106.893776,55.4252683 106.717341,49.7278079 105.434553,44.2590778 C104.595967,40.2043159 103.118063,36.2992683 101.243699,32.6167127 C98.3792214,34.0078079 94.7176724,33.4443 92.4136364,31.2360143 C91.1080161,30.0986016 90.3213227,28.4683794 89.9705281,26.7944905 C89.5076452,24.382427 90.1967802,21.7520302 91.8345139,19.9180302 C90.6617388,18.7598238 89.4827367,17.5995381 88.164662,16.607681 C86.6058053,15.4203635 85.0303429,14.2517603 83.365625,13.2141571 C82.1741686,12.4759825 81.0055449,11.6899825 79.7372873,11.089046 C76.8375231,9.70210952 73.8754877,8.44409365 70.8096669,7.47510952 C68.2046533,6.60801429 65.4917029,6.14015714 62.7912067,5.69725238 C59.5883892,5.29177619 56.3482089,5.07344286 53.1184071,5.25642698 M52.8319594,0.945903175 C56.4374643,0.744204762 60.0595749,0.972934921 63.6360199,1.45326825 C66.3136833,1.90033175 69.0038009,2.36818889 71.5963603,3.19161746 C75.3367862,4.35190317 78.9630482,5.86983968 82.4606163,7.62690317 C85.8128848,9.5128873 88.9949453,11.6962206 91.9735863,14.124919 C94.1406255,16.0254587 96.1540624,18.0965063 98.0803194,20.2403317 C98.9666468,21.1947603 99.711826,22.2677127 100.510974,23.2969984 C103.917211,27.896554 106.586571,33.0471413 108.352999,38.4950778 C109.125162,40.734554 109.596348,43.0592841 110.082063,45.3756968 C112.041532,56.0553159 110.501356,67.3254746 105.822711,77.1151254 C103.020505,82.9997286 99.1327034,88.3624111 94.4208461,92.8600778 C96.2723777,94.4591095 98.1363636,96.0415063 99.9775166,97.6509349 C100.901207,98.7405222 101.951515,99.7344587 102.72783,100.944649 C104.890718,104.155189 105.633821,108.253617 104.830522,112.033903 C105.326616,112.237681 105.833089,112.50384 106.117461,112.984173 C106.754703,113.917808 106.482786,115.321379 105.534187,115.94103 C104.880339,116.419284 104.000239,116.402649 103.277892,116.099062 C102.925022,116.735348 102.511956,117.332125 102.080209,117.916427 C102.850297,118.284475 103.458479,119.045522 103.439798,119.929252 C103.495842,121.131125 102.379111,122.210316 101.181427,122.114665 C100.2951,122.102189 99.5499208,121.459665 99.2198832,120.663268 C98.4062056,121.216379 97.5696953,121.734141 96.6667623,122.122983 C96.9635885,122.813332 97.0279355,123.642998 96.6107181,124.297998 C96.0440498,125.314808 94.6097356,125.670379 93.6341528,125.042411 C92.9803047,124.670205 92.6461157,123.940348 92.5630874,123.214649 C91.7826212,123.289506 90.9959278,123.333173 90.2113102,123.281189 C89.9809066,123.925792 89.5387808,124.524649 88.8787056,124.761697 C87.9508641,125.135983 86.7967704,124.774173 86.273692,123.915395 C85.9561087,123.464173 85.9312002,122.900665 85.9228973,122.370427 C83.9924888,121.590665 82.2343641,120.405427 80.7896713,118.899967 C80.4368009,119.868951 79.9946751,120.804665 79.4591424,121.686316 C79.8680569,121.854744 80.2998042,122.035649 80.5904033,122.387062 C81.5680618,123.478729 81.2214186,125.508189 79.8120128,126.057141 C78.6786762,126.574903 77.2921032,125.890792 76.8977187,124.736744 C76.1463124,125.408379 75.3222563,125.990602 74.4504589,126.493808 C74.9133418,127.177919 75.075247,128.096998 74.6725596,128.847649 C74.1785411,129.895649 72.7795139,130.35311 71.7644926,129.797919 C71.0483734,129.461062 70.6560645,128.706252 70.5585063,127.945205 C69.5165008,128.159379 68.4516626,128.275824 67.3889001,128.240475 C67.4200357,128.91211 67.3909758,129.646125 66.9322443,130.180522 C66.2098979,131.155744 64.6531168,131.282586 63.7813194,130.440443 C62.9697176,129.7293 62.9136735,128.492078 63.322588,127.548046 C62.689497,127.315157 62.0647089,127.059395 61.4627535,126.755808 C61.0227034,127.350506 60.3543254,127.820443 59.5883892,127.793411 C58.459204,127.826681 57.4317285,126.832744 57.4275771,125.70157 C57.3819115,125.148459 57.6434507,124.641094 57.9319741,124.191951 C56.987527,123.235443 56.169698,122.147935 55.5386827,120.960617 C54.6046141,122.376665 53.3861735,123.574379 52.0286604,124.576633 C52.3047296,125.391744 52.3420923,126.377363 51.7795754,127.084348 C51.1402574,127.95976 49.8138799,128.194729 48.9109469,127.597951 C48.4895782,127.352586 48.2363418,126.924237 47.9955596,126.51876 C47.5139954,126.65184 47.026204,126.770363 46.5384126,126.872252 C46.6006838,127.679046 46.3142361,128.544062 45.6147225,129.003602 C44.6827296,129.691871 43.2297339,129.429871 42.5987187,128.45257 C42.2707568,128.017983 42.2230155,127.462792 42.2064099,126.940871 C41.6646501,126.855617 41.1270417,126.759967 40.591509,126.639363 C40.4399823,127.281887 40.1120204,127.916094 39.5162922,128.244633 C38.5926021,128.808141 37.2683004,128.537824 36.6601179,127.637459 C36.0934496,126.830665 36.1411909,125.705729 36.6227552,124.873983 C36.3010204,124.65149 35.9855128,124.426919 35.6700052,124.200268 C34.7774507,124.786649 33.4801332,124.72011 32.7660896,123.882125 C32.0333647,123.110681 32.0707274,121.871379 32.6789099,121.041713 C32.1994213,120.318094 31.7759769,119.563284 31.4189551,118.773125 C30.111259,120.291062 28.4839039,121.524125 26.6738864,122.380824 C26.9125929,123.060776 26.9458042,123.848856 26.5306626,124.468506 C25.9681457,125.427094 24.614784,125.778506 23.6537312,125.217078 C23.0247917,124.892697 22.6719213,124.233538 22.5203946,123.568141 C21.771064,123.657554 21.017582,123.674189 20.2640999,123.663792 C20.1437089,124.364538 19.7929142,125.063205 19.1411419,125.404221 C18.1572563,125.99476 16.7561533,125.612157 16.2081664,124.603665 C15.8802045,124.081744 15.8968102,123.439221 15.9881413,122.85284 C15.4650629,122.640744 14.9440602,122.420332 14.4292846,122.191602 C14.0722628,122.788379 13.5222002,123.314459 12.8102323,123.420506 C11.6312301,123.67003 10.3816539,122.732237 10.2861713,121.528284 C10.1740831,120.8213 10.3899567,120.116395 10.8196283,119.554967 C10.6099818,119.34703 10.4003352,119.137014 10.1927644,118.926998 C9.58250626,119.001856 8.92865822,119.078792 8.36198992,118.78976 C7.50472249,118.39676 6.9920226,117.402824 7.16430637,116.475427 C7.22450191,115.984697 7.52963099,115.585459 7.81815441,115.204935 C6.54366966,112.214808 6.21363208,108.80049 7.08127805,105.652332 C7.64171923,103.437808 8.7688287,101.381316 10.2840956,99.6783159 C12.4054692,97.4533952 14.6576125,95.3573952 16.8454088,93.1990143 C15.2574921,91.7289032 13.765058,90.1569032 12.3660308,88.5079667 C11.4797034,87.3851095 10.622436,86.2435381 9.76516857,85.0998873 C8.70033034,83.7171095 7.82853295,82.1970937 6.93390278,80.7041095 C5.67394798,78.6746492 4.78554493,76.4518079 3.84524918,74.2684746 C1.81728241,69.6481254 0.779428377,64.6597286 0.160867375,59.6692524 C-0.0716119281,56.1260143 -0.0591576797,52.5599032 0.248047113,49.0208238 C0.424482298,46.7938238 0.930955065,44.6104905 1.39176225,42.4292365 C1.80067674,40.4787921 2.47735757,38.599046 3.14365986,36.7213794 C3.76844798,34.9580778 4.50947576,33.2363635 5.33768328,31.5583159 C6.19079929,29.844919 7.00240114,28.0982524 8.08799646,26.5137762 C10.5663919,22.8748873 13.395582,19.4751254 16.4946141,16.345681 C17.4826511,15.3683794 18.4748396,14.3889984 19.5791163,13.5385381 C22.2879153,11.482046 25.0755912,9.51704603 28.0729137,7.8993 C29.1564333,7.30460159 30.24618,6.7140619 31.3400782,6.13599841 C32.9487519,5.28761746 34.6923467,4.7490619 36.411033,4.17931587 C40.1452318,2.99199841 43.9479289,2.00845873 47.8066702,1.33058571 C49.4651609,1.02907778 51.1547873,1.02283968 52.8319594,0.945903175" id="Fill-1" class="color-fill" fill="#EE6A39" mask="url(#mask-2)"></path>
                </g>
                <path d="M43.7963896,13.6217367 C41.7670595,14.0300906 40.1249896,15.7148176 39.6620081,17.6945855 C39.3223441,18.9880625 39.5148925,20.3884383 40.1141723,21.5814302 C41.1677797,23.6680971 43.6860529,24.9401943 46.0139412,24.469839 C47.3877415,24.2881108 48.5387049,23.4115397 49.4019274,22.3831721 C50.6091409,20.7689984 50.8492855,18.4920515 50.0033707,16.6662179 C49.2807734,15.2701181 48.0605791,14.0236767 46.4725958,13.6623583 C45.5963925,13.497734 44.668266,13.3437996 43.7963896,13.6217367 M43.3182639,9.13198216 C45.7954313,8.72790425 48.4673105,9.25384693 50.535583,10.6798785 C51.9656334,11.5799674 53.0235678,12.9397216 53.8694826,14.3678912 C55.7235721,17.8335541 55.267081,22.3831721 52.7206827,25.3998596 C51.8314986,26.4047094 50.7735642,27.2705907 49.5988027,27.931226 C47.4353377,29.017319 44.8759587,29.2653245 42.5199453,28.722278 C41.3257126,28.3588217 40.1963839,27.7965334 39.1492669,27.1294841 C37.3449371,25.8167654 35.9689734,23.9075507 35.3891647,21.7610204 C34.6817117,19.3536568 34.9478179,16.6833218 36.1139255,14.4598243 C37.4942162,11.7018322 40.2547975,9.67289069 43.3182639,9.13198216" id="Fill-4" class="color-fill" fill="#EE6A39"></path>
                <path d="M15.7543489,34.1727983 C17.1383875,33.5646968 18.864419,34.6405687 18.9791818,36.1655002 C19.1444401,37.3185542 18.2860149,38.207318 17.8108971,39.1568919 C17.4482469,39.8772583 16.9639481,40.623352 16.160609,40.8642538 C14.827066,41.3717847 13.2272735,40.3941445 13.0390626,38.9627671 C12.8301944,37.9243169 13.5049993,37.0542639 13.970936,36.2099384 C14.4253964,35.426423 14.8431328,34.4885433 15.7543489,34.1727983" id="Fill-6" class="color-fill" fill="#EE6A39"></path>
                <path d="M92.3150921,40.4769461 C89.8041269,40.9449639 87.8123782,43.1438046 87.4889318,45.6314671 C87.1952765,47.2842869 87.7953547,48.9371067 88.7039836,50.3032129 C89.0997798,50.7880963 89.597717,51.1823275 90.0956542,51.5596933 C91.7043743,52.7423871 93.9365798,52.908934 95.7751171,52.194258 C98.3350249,51.1928685 99.9841758,48.3109747 99.4904945,45.6188179 C99.2564215,43.4705738 97.7136674,41.5436895 95.6985114,40.7425778 C94.6324151,40.3209401 93.4343868,40.3146155 92.3150921,40.4769461 M91.7320375,36.0855893 C93.8472065,35.8895278 96.0900517,35.9696389 98.0094506,36.9773531 C100.314006,38.0335555 102.101473,40.0194691 103.14629,42.2857718 C103.901707,44.2590363 104.248561,46.4452278 103.801694,48.5281181 C103.295245,51.2476814 101.626943,53.7163702 99.3266434,55.2701051 C97.3434064,56.5856148 94.9090469,57.180124 92.5363975,56.9524396 C90.1233174,56.8048664 87.8655766,55.6432545 86.1483317,53.9925429 C85.0354208,53.0754808 84.3885281,51.7536466 83.8139852,50.4676516 C82.0754609,46.5611782 83.2117791,41.6596398 86.3653812,38.788287 C87.8357855,37.3863416 89.7445446,36.4882533 91.7320375,36.0855893" id="Fill-8" class="color-fill" fill="#EE6A39"></path>
                <path d="M10.8160247,44.0474198 C11.8830493,43.8176553 13.0508607,44.4452527 13.4101872,45.4451535 C13.6270978,45.964251 13.5460302,46.5344073 13.4145692,47.064142 C13.1319282,48.2299838 12.9106357,49.4107178 12.8120399,50.6042165 C12.5206349,52.7486847 12.4461403,54.9250647 12.7046802,57.0759153 C13.1209732,61.7754493 14.5276052,66.4175423 16.9727786,70.5043711 C17.4022177,71.2489781 18.0573314,71.9680558 17.9959829,72.8807312 C17.9762638,73.9125438 17.1020486,74.8486212 16.045979,74.9741407 C15.1498536,75.1145523 14.216481,74.672043 13.7585587,73.9167987 C10.6473165,69.0598335 8.6578743,63.50932 8.14079461,57.8056302 C7.87129969,54.3208693 7.95455828,50.791432 8.69073954,47.3641122 C8.8682118,46.6301424 8.94051532,45.8578786 9.26259462,45.1685852 C9.57371884,44.5941741 10.163102,44.1750667 10.8160247,44.0474198" id="Fill-10" class="color-fill" fill="#EE6A39"></path>
                <path d="M41.8715978,54.0500071 C42.553877,53.9231372 43.270883,54.0520534 43.9204782,54.2750988 C45.0950608,54.8541986 45.8958196,56.0962958 46,57.3977354 C45.991829,58.1098439 45.8753921,58.8649245 45.4484569,59.4563019 C44.8519733,60.2645859 43.938863,60.8539171 42.9338289,60.9705556 C41.5222872,61.1629067 40.031078,60.3975947 39.3876111,59.1207105 C38.4642871,57.4509389 39.2589177,55.0424571 41.0463259,54.3303486 C41.3118837,54.2116639 41.5856125,54.113442 41.8715978,54.0500071" id="Fill-12" class="color-fill" fill="#EE6A39"></path>
                <path d="M66.5937518,54.1289738 C67.4008167,53.8804673 68.2894033,54.0067574 69.041441,54.3734064 C70.1929351,54.8663455 70.8634511,56.106841 71,57.3065978 C71,58.4187662 70.5353263,59.5716733 69.6304353,60.2581216 C69.0740497,60.8019842 68.2649467,60.9180897 67.5251373,60.9995672 C66.4470127,61.0178997 65.4402196,60.4516308 64.6841058,59.7183329 C64.1134538,58.9565179 63.932068,57.9339748 64.0217419,56.9990201 C64.1562527,55.6220497 65.2832903,54.4752533 66.5937518,54.1289738" id="Fill-14" class="color-fill" fill="#EE6A39"></path>
                <path d="M71.2645625,64.1360856 C72.1003906,63.8794273 72.9685039,64.0761187 73.8204746,64.0161519 C74.5953195,64.0761187 75.4652265,63.7954737 76.1539775,64.4167307 C76.8750138,65.0140009 77.1853105,66.306887 76.8875691,67.3647029 C76.6418428,68.2977877 75.9441237,68.9838089 75.2015639,68.9934036 C74.0787563,69.0005997 72.9559486,69.005397 71.8349345,68.9886063 C71.1461834,68.9838089 70.4807495,68.4201202 70.188389,67.5829824 C69.6879683,66.299691 70.231436,64.5654486 71.2645625,64.1360856" id="Fill-16" class="color-fill" fill="#EE6A39"></path>
                <path d="M35.8129465,65.0206484 C37.1964396,64.9797981 38.583819,65.0134395 39.9692553,65.0062307 C40.896118,64.9725892 41.7685736,65.842461 41.9512258,66.9646438 C42.151366,68.0195436 41.7199959,69.1921885 40.9427526,69.6968102 C40.4433737,70.0572544 39.8448963,69.9923744 39.2930536,69.9995833 C38.1660507,69.9803596 37.0390478,70.018807 35.912045,69.9851655 C34.9599219,69.9635389 34.1224422,68.9687131 34.0194574,67.80568 C33.8581794,66.4720368 34.7209196,65.1143639 35.8129465,65.0206484" id="Fill-18" class="color-fill" fill="#EE6A39"></path>
                <path d="M48.6716802,73.2340916 C49.4092977,75.0115906 50.7990407,76.5142185 52.5466574,77.2634964 C53.9622469,77.8987538 55.6124424,77.9170785 57.071772,77.4202747 C59.0003138,76.7544761 60.5212771,75.1357915 61.3066112,73.2340916 C57.0956302,73.2381638 52.8846493,73.2381638 48.6716802,73.2340916 M45.7072927,69.0499447 C47.3813465,68.9501767 49.0633531,69.0356921 50.7413833,69.007187 C54.8290966,69.007187 58.9168099,69.0132952 63.002535,69.0051509 C63.5930267,68.9970066 64.1894829,69.0988106 64.742199,69.3125992 C65.5732613,69.6526247 66.1100719,70.5994025 65.9808398,71.5095308 C65.7144226,73.7736532 64.8416084,75.9665127 63.4498772,77.7480838 C61.9925358,79.6457115 59.9327737,81.0485715 57.6523227,81.6675402 C55.204864,82.2865088 52.5267756,82.0564317 50.2781356,80.8490355 C46.8007958,79.108186 44.4269,75.4147347 44.0133571,71.4993504 C43.8920776,70.4039387 44.6078251,69.233192 45.7072927,69.0499447" id="Fill-20" class="color-fill" fill="#EE6A39"></path>
                <path d="M67.626038,109.456191 C66.2259438,109.654753 65.1822761,111.08694 65.4768081,112.464204 C65.6688941,113.917514 67.3058945,114.954688 68.7166601,114.502641 C70.0121741,114.156212 70.8146671,112.709239 70.4987922,111.435481 C70.2576174,110.174396 68.9322234,109.147785 67.626038,109.456191 M67.3101631,105.041339 C69.1755324,104.827989 71.1134677,105.451138 72.5327704,106.663638 C73.8645673,107.783194 74.7289548,109.42028 74.9423837,111.133412 C75.2027671,113.100027 74.5710173,115.159588 73.2413547,116.642471 C72.0504209,118.028185 70.2661546,118.852009 68.4477396,118.99565 C66.7146962,119.052684 64.9218927,118.54994 63.5922301,117.424047 C61.8293066,116.061569 60.8710105,113.790772 61.0140079,111.593908 C61.0716337,110.121587 61.6884435,108.721086 62.5933824,107.567732 C63.1141491,106.788268 63.9550594,106.323547 64.7447466,105.850376 C65.5152253,105.364531 66.4351042,105.233564 67.3101631,105.041339" id="Fill-22" class="color-fill" fill="#EE6A39"></path>
            </g>
        </g>
    </g>
</svg>