<?xml version="1.0" encoding="UTF-8"?>
<svg width="59px" height="129px" viewBox="0 0 59 129" version="1.1" xmlns="http://www.w3.org/2000/svg" xmlns:xlink="http://www.w3.org/1999/xlink">
    <!-- Generator: Sketch 48.2 (47327) - http://www.bohemiancoding.com/sketch -->
    <title>Group</title>
    <desc>Created with Sketch.</desc>
    <defs></defs>
    <g id="Desktop-HD" stroke="none" stroke-width="1" fill="none" fill-rule="evenodd" transform="translate(-141.000000, -911.000000)">
        <g id="Group-7" transform="translate(0.000000, 717.000000)" fill="#FFFFFF" fill-rule="nonzero">
            <g id="Group" transform="translate(141.000000, 194.000000)">
                <path d="M30.5078236,9.22810811 C46.5305413,29.6187387 44.1834635,67.7045045 42.6656866,81.6576577 L18.3343134,81.6576577 C16.8321837,67.6886486 14.4694587,29.6187387 30.5078236,9.22810811 Z M30.5078236,0 C2.57759787,25.3693694 12.8421514,88 12.8421514,88 L48.1578486,88 C48.1578486,88 58.4224021,25.3693694 30.4921764,0 L30.5078236,0 Z" id="Shape"></path>
                <path d="M7.53824315,114 C7.53824315,114 -11.848603,84.8111538 11.5584138,73 C16.2925916,84.8426923 18,87.6023077 18,87.6023077 C18,87.6023077 2.91271861,89.4473077 11.5118481,110.861923 L7.53824315,114 Z" id="Shape"></path>
                <path d="M51.4617568,114 C51.4617568,114 70.848603,84.8111538 47.4415862,73 C42.7074084,84.8426923 41,87.6023077 41,87.6023077 C41,87.6023077 56.8633761,87.6023077 47.4881519,110.861923 L51.4617568,114 Z" id="Shape"></path>
                <polygon id="Shape" points="40.4214139 94 20.5785861 94 19 87 42 87"></polygon>
                <path d="M21.2543466,98 L38.4140696,98 C39.8231189,101.591225 40.6943392,105.367759 41,109.209397 C41,113.832482 36.2910527,117.252298 36.2910527,117.252298 C36.2910527,117.252298 38.5577324,107.626149 34.9661625,107.626149 C31.3745926,107.626149 32.6994828,116.603166 34.9661625,119.500511 C37.2328422,122.397855 34.9661625,129 32.1727192,129 C32.1727192,129 35.0938628,122.936159 29.5069762,120.418795 C23.9200896,117.90143 24.1914527,111.837589 26.7135329,108.148621 C29.2356131,104.459653 23.393326,103.668029 22.196136,108.275281 C20.998946,112.882533 22.4674991,115.004086 22.4674991,115.004086 C22.4674991,115.004086 16.7529122,112.360061 17.0083128,107.483657 C17.2637133,102.607252 21.2543466,98 21.2543466,98 Z" id="Shape"></path>
                <circle id="Oval" cx="31" cy="61" r="7"></circle>
                <circle id="Oval" cx="31" cy="40" r="4"></circle>
            </g>
        </g>
    </g>
</svg>