<?xml version="1.0" encoding="UTF-8"?>
<svg width="130px" height="99px" viewBox="0 0 130 99" version="1.1" xmlns="http://www.w3.org/2000/svg" xmlns:xlink="http://www.w3.org/1999/xlink">
    <!-- Generator: Sketch 48.2 (47327) - http://www.bohemiancoding.com/sketch -->
    <title>Group</title>
    <desc>Created with Sketch.</desc>
    <defs></defs>
    <g id="Desktop-HD" stroke="none" stroke-width="1" fill="none" fill-rule="evenodd" transform="translate(-1195.000000, -1300.000000)">
        <g id="Group-7" transform="translate(0.000000, 717.000000)" fill="#FFFFFF" fill-rule="nonzero">
            <g id="Group" transform="translate(1195.000000, 583.000000)">
                <path d="M64.5028736,58 C74.9224138,58 82,49.4925373 82,38.9985532 C82,28.5074627 74.9224138,20 64.5028736,20 C54.0818966,20 47,28.5060158 47,38.9985532 C47,49.4910905 54.0818966,58 64.5028736,58 Z" id="Shape"></path>
                <path d="M90.4048426,96.711454 C93.1099274,93.5786826 94.7675545,88.0985224 95,83.208129 C95,71.9719028 88.88523,62.2188526 79.8416465,57 C75.9409201,60.5780162 70.7966102,62.6962134 65,62.6962134 C59.2062954,62.6962134 54.0605327,60.5780162 50.1583535,57 C41.1133172,62.2188526 35,71.9719028 35,83.208129 C35.22954,88.0985224 36.8915254,93.5786826 39.5937046,96.711454 C42.1869249,99.8778012 89.4256659,99.64569 90.4048426,96.711454 Z" id="Shape"></path>
                <path d="M100.502155,38 C110.918975,38 118,29.4914144 118,18.9992766 C118,8.50858557 110.918975,0 100.502155,0 C90.0810245,0 83,8.50713878 83,18.9992766 C83,29.4914144 90.0810245,38 100.502155,38 Z" id="Shape"></path>
                <path d="M29.5007183,38 C39.9189755,38 47,29.4914144 47,18.9992766 C47,8.50858557 39.9189755,0 29.5007183,0 C19.0810245,0 12,8.50713878 12,18.9992766 C12.0014366,29.4914144 19.0810245,38 29.5007183,38 Z" id="Shape"></path>
                <path d="M114.805776,37 C110.897276,40.579455 105.742249,42.6976399 99.9319216,42.6976399 C94.8467933,42.6976399 90.2582368,41.0743308 86.5725381,38.2671154 C86.5841879,38.608711 86.5958376,38.9503067 86.5958376,39.2948219 C86.5958376,44.9588862 84.8993386,50.033187 82,54.0126301 C91.0737213,59.432906 97.150537,68.693943 98.5921971,78.9972847 C111.513258,79.0527575 124.879922,78.2571608 125.395425,76.7126814 C128.106911,73.5799284 129.769917,68.0998002 130,63.2094355 C130,51.973275 123.872216,42.2202819 114.805776,37 Z" id="Shape"></path>
                <path d="M31.4058973,78.996442 C32.84747,68.6914892 38.9224609,59.4317759 48,54.0114203 C45.1008373,50.0333786 43.4044412,44.960463 43.4044412,39.2948556 C43.4044412,38.9503353 43.4146341,38.6087347 43.4277394,38.267134 C39.7422643,41.0729308 35.1554423,42.6977236 30.0720786,42.6977236 C24.2635602,42.6977236 19.1059337,40.5795076 15.1962141,37 C6.13032399,42.2203586 0,51.9720352 0,63.2098206 C0.232981434,68.1002573 1.89588642,73.5804659 4.60720786,76.713265 C5.93083364,78.327839 18.8918821,79.057755 31.4058973,78.996442 Z" id="Shape"></path>
            </g>
        </g>
    </g>
</svg>