<?xml version="1.0" encoding="UTF-8"?>
<svg width="120px" height="120px" viewBox="0 0 120 120" version="1.1" xmlns="http://www.w3.org/2000/svg" xmlns:xlink="http://www.w3.org/1999/xlink">
    <!-- Generator: Sketch 48.2 (47327) - http://www.bohemiancoding.com/sketch -->
    <title>logo</title>
    <desc>Created with Sketch.</desc>
    <defs></defs>
    <g id="Desktop-HD" stroke="none" stroke-width="1" fill="none" fill-rule="evenodd" transform="translate(-838.000000, -920.000000)">
        <g id="Group-7" transform="translate(0.000000, 717.000000)" fill-rule="nonzero">
            <g id="logo" transform="translate(838.000000, 203.000000)">
                <path d="M60.0000001,120 C93.1370851,120 120,93.1370849 120,59.9999999 C120,26.8629149 93.1370851,0 60.0000001,0 C26.8629151,0 0,26.8629149 0,59.9999999 C0,93.1370849 26.8629151,120 60.0000001,120 Z" id="Red-circle" class="color-fill" fill="#FFFFFF"></path>
                <g id="Le-Wagon-icon" transform="translate(21.000000, 36.000000)" fill="#EE6A39">
                    <path d="M18.0317143,34.3383636 C14.0370823,34.3383636 10.8071175,37.5896458 10.8071175,41.6102901 C10.8071175,45.6310915 14.0372385,48.8822165 18.0317143,48.8822165 C22.02619,48.8822165 25.256311,45.6309344 25.256311,41.6102901 C25.256311,37.5896458 22.02619,34.3383636 18.0317143,34.3383636 Z M18.0317143,45.5155693 C15.8720022,45.5155693 14.0945456,43.7264683 14.0945456,41.5526075 C14.0945456,39.3787468 15.8720022,37.5896458 18.0317143,37.5896458 C20.1914262,37.5896458 21.9688828,39.3787468 21.9688828,41.5526075 C21.9688828,43.7841507 20.2487334,45.5155693 18.0317143,45.5155693 Z" id="Back-wheel"></path>
                    <path d="M59.9267865,34.3383636 C55.9321546,34.3383636 52.7021896,37.5896458 52.7021896,41.6102901 C52.7021896,45.6310915 55.9323107,48.8822165 59.9267865,48.8822165 C63.9214183,48.8822165 67.1513831,45.6309344 67.1513831,41.6102901 C67.1515393,37.5896458 63.9214183,34.3383636 59.9267865,34.3383636 Z M59.9267865,45.5155693 C57.7670743,45.5155693 55.9896178,43.7264683 55.9896178,41.5526075 C55.9896178,39.3787468 57.7670743,37.5896458 59.9267865,37.5896458 C62.0864984,37.5896458 63.8639551,39.3787468 63.8639551,41.5526075 C63.8641113,43.7841507 62.0866546,45.5155693 59.9267865,45.5155693 Z" id="Front-wheel"></path>
                    <path d="M18.0317143,32.8761825 C22.8481641,32.8761825 26.7089753,36.7622867 26.7089753,41.6102901 L51.2498375,41.6102901 C51.2498375,36.7622867 55.1106488,32.8761825 59.9270988,32.8761825 C64.7435485,32.8761825 68.6043598,36.7622867 68.6043598,41.6102901 L77.6064132,41.4179102 C77.6064132,41.4179102 78.9443073,40.975468 78.9443073,38.359008 C78.9443073,35.742705 77.1668507,35.4924855 77.1668507,35.4924855 L72.9810911,35.4348029 C72.9810911,35.4348029 72.4250442,32.1643457 68.9864592,28.855381 C65.5478742,25.5464165 60.6150961,25.5464165 60.6150961,25.5464165 L0.964195854,25.7964788 L0.964195854,37.6663463 C0.964195854,37.6663463 0.0850707832,37.1468893 0.0277636959,39.5709695 C-0.0298556914,41.9373672 1.0403971,41.5526075 1.0403971,41.5526075 L9.3544531,41.6102901 C9.3544531,36.7501327 13.2152643,32.8761825 18.0317143,32.8761825 Z" id="Bottom-frame"></path>
                    <path d="M76.9181036,23.3150304 L76.5931553,19.1596887 C76.5931553,19.1596887 74.2664371,11.5190601 68.6854763,5.70915752 L69.5703397,5.70915752 C67.025033,0.604593754 46.7197653,0.321074916 39.5143767,0.0755773947 C32.1750097,-0.17448496 4.76738772,1.72998113 2.05334281,4.23091903 C0.84926938,5.30818324 1.0403971,6.90506163 1.0403971,6.90506163 L1.0403971,23.5650928 L60.6585044,23.5650936 C60.6585044,23.5650936 66.0946703,23.5650936 70.2667339,26.950915 C73.8902836,29.8915922 74.7582353,34.3575388 74.7582353,34.3575388 L76.9179475,34.3575388 L76.8606403,27.7781169 L77.8162789,27.8357994 C78.7528672,26.3737755 78.3706118,23.8151551 77.6826145,23.3150304 L76.9181036,23.3150304 Z M20.3886438,19.3519114 C20.3886438,19.6789886 20.140209,19.9290509 19.8152607,19.9290509 L7.71690698,19.9290509 C7.39195863,19.9290509 7.14352381,19.6789886 7.14352381,19.3519114 L7.14352381,7.28966414 C7.14352381,6.96258697 7.39195863,6.71252463 7.71690698,6.71252463 L19.8152607,6.71252463 C20.140209,6.71252463 20.3886438,6.96258697 20.3886438,7.28966414 L20.3886438,19.3519114 Z M36.7077348,19.4097511 C36.7077348,19.7368282 36.4593,19.9868905 36.1343516,19.9868905 L24.035998,19.9868905 C23.7110496,19.9868905 23.4626148,19.7368282 23.4626148,19.4097511 L23.4626148,7.34750382 C23.4626148,7.02042667 23.7110496,6.77036431 24.035998,6.77036431 L36.1343516,6.77036431 C36.4593,6.77036431 36.7077348,7.02042667 36.7077348,7.34750382 L36.7077348,19.4097511 Z M52.9465464,19.4097511 C52.9465464,19.7368282 52.6981117,19.9868905 52.3731633,19.9868905 L40.2748097,19.9868905 C39.9498612,19.9868905 39.7014264,19.7368282 39.7014264,19.4097511 L39.7014264,7.34750382 C39.7014264,7.02042667 39.9498612,6.77036431 40.2748097,6.77036431 L52.3923697,6.77036431 C52.7173181,6.77036431 52.965753,7.02042667 52.965753,7.34750382 L52.965753,19.4097511 L52.9465464,19.4097511 Z M56.7220545,20.0093659 C56.0913642,20.0093659 55.7764547,19.9252978 55.7764547,19.2968804 L55.7764547,7.88783022 C55.7764547,7.25941275 55.7219699,6.79284006 56.3526602,6.79284006 L63.899383,6.79284006 C68.1424497,6.79284006 72.9014364,15.1340356 72.9014364,17.2859647 C72.9015926,19.3807933 72.3855165,20.0093663 71.8121332,20.0093663 L56.7220545,20.0093659 Z" id="Top-Frame"></path>
                </g>
            </g>
        </g>
    </g>
</svg>