<?xml version="1.0" encoding="UTF-8"?>
<svg width="112px" height="128px" viewBox="0 0 112 128" version="1.1" xmlns="http://www.w3.org/2000/svg" xmlns:xlink="http://www.w3.org/1999/xlink">
    <title>webcam-regular</title>
    <g id="Page-1" stroke="none" stroke-width="1" fill="none" fill-rule="evenodd">
        <g id="webcam-regular" class="color-fill" fill="#000000" fill-rule="nonzero">
            <path d="M100.25,109.65 L87.9525,101.9625 C102.47,91.8475 112,75.0475 112,56 C112,25.0725 86.9275,0 56,0 C25.0725,0 0,25.0725 0,56 C0,75.0475 9.53,91.8475 24.0575,101.9625 L11.75,109.65 C9.41447256,111.114501 7.9974924,113.678291 8,116.435 L8,120 C8,124.418278 11.581722,128 16,128 L96,128 C100.418278,128 104,124.418278 104,120 L104,116.435 C104.002508,113.678291 102.585527,111.114501 100.25,109.65 Z M56,100 C31.699471,100 12,80.300529 12,56 C12,31.699471 31.699471,12 56,12 C80.300529,12 100,31.699471 100,56 C100,80.300529 80.300529,100 56,100 Z M56,20 C36.1475,20 20,36.1475 20,56 C20,75.8525 36.1475,92 56,92 C75.8525,92 92,75.8525 92,56 C92,36.1475 75.8525,20 56,20 Z M56,80 C42.745166,80 32,69.254834 32,56 C32,42.745166 42.745166,32 56,32 C69.254834,32 80,42.745166 80,56 C79.9862204,69.2491221 69.2491221,79.9862204 56,80 L56,80 Z M56,40 C47.1674421,40.0096448 40.0096448,47.1674421 40,56 C40,58.209139 41.790861,60 44,60 C46.209139,60 48,58.209139 48,56 C48,51.581722 51.581722,48 56,48 C58.209139,48 60,46.209139 60,44 C60,41.790861 58.209139,40 56,40 L56,40 Z" id="Shape"></path>
        </g>
    </g>
</svg>
